<svg xmlns="http://www.w3.org/2000/svg" viewBox="0 0 100 100" preserveAspectRatio="xMidYMid" width="442" height="442" style="shape-rendering: auto; display: block; background: transparent;" xmlns:xlink="http://www.w3.org/1999/xlink"><g><g transform="rotate(0 50 50)">
  <rect fill="#d8a011" height="6" width="6" ry="2.2800000000000002" rx="2.2800000000000002" y="34" x="47">
    <animate repeatCount="indefinite" begin="-0.7532956685499059s" dur="0.8474576271186441s" keyTimes="0;1" values="1;0" attributeName="opacity"></animate>
  </rect>
</g><g transform="rotate(40 50 50)">
  <rect fill="#d8a011" height="6" width="6" ry="2.2800000000000002" rx="2.2800000000000002" y="34" x="47">
    <animate repeatCount="indefinite" begin="-0.6591337099811676s" dur="0.8474576271186441s" keyTimes="0;1" values="1;0" attributeName="opacity"></animate>
  </rect>
</g><g transform="rotate(80 50 50)">
  <rect fill="#d8a011" height="6" width="6" ry="2.2800000000000002" rx="2.2800000000000002" y="34" x="47">
    <animate repeatCount="indefinite" begin="-0.5649717514124294s" dur="0.8474576271186441s" keyTimes="0;1" values="1;0" attributeName="opacity"></animate>
  </rect>
</g><g transform="rotate(120 50 50)">
  <rect fill="#d8a011" height="6" width="6" ry="2.2800000000000002" rx="2.2800000000000002" y="34" x="47">
    <animate repeatCount="indefinite" begin="-0.4708097928436912s" dur="0.8474576271186441s" keyTimes="0;1" values="1;0" attributeName="opacity"></animate>
  </rect>
</g><g transform="rotate(160 50 50)">
  <rect fill="#d8a011" height="6" width="6" ry="2.2800000000000002" rx="2.2800000000000002" y="34" x="47">
    <animate repeatCount="indefinite" begin="-0.37664783427495296s" dur="0.8474576271186441s" keyTimes="0;1" values="1;0" attributeName="opacity"></animate>
  </rect>
</g><g transform="rotate(200 50 50)">
  <rect fill="#d8a011" height="6" width="6" ry="2.2800000000000002" rx="2.2800000000000002" y="34" x="47">
    <animate repeatCount="indefinite" begin="-0.2824858757062147s" dur="0.8474576271186441s" keyTimes="0;1" values="1;0" attributeName="opacity"></animate>
  </rect>
</g><g transform="rotate(240 50 50)">
  <rect fill="#d8a011" height="6" width="6" ry="2.2800000000000002" rx="2.2800000000000002" y="34" x="47">
    <animate repeatCount="indefinite" begin="-0.18832391713747648s" dur="0.8474576271186441s" keyTimes="0;1" values="1;0" attributeName="opacity"></animate>
  </rect>
</g><g transform="rotate(280 50 50)">
  <rect fill="#d8a011" height="6" width="6" ry="2.2800000000000002" rx="2.2800000000000002" y="34" x="47">
    <animate repeatCount="indefinite" begin="-0.09416195856873824s" dur="0.8474576271186441s" keyTimes="0;1" values="1;0" attributeName="opacity"></animate>
  </rect>
</g><g transform="rotate(320 50 50)">
  <rect fill="#d8a011" height="6" width="6" ry="2.2800000000000002" rx="2.2800000000000002" y="34" x="47">
    <animate repeatCount="indefinite" begin="0s" dur="0.8474576271186441s" keyTimes="0;1" values="1;0" attributeName="opacity"></animate>
  </rect>
</g><g></g></g><!-- [ldio] generated by https://loading.io --></svg>